<?xml version="1.0" encoding="UTF-8" standalone="no"?>
<svg
   xmlns:dc="http://purl.org/dc/elements/1.1/"
   xmlns:cc="http://creativecommons.org/ns#"
   xmlns:rdf="http://www.w3.org/1999/02/22-rdf-syntax-ns#"
   xmlns:svg="http://www.w3.org/2000/svg"
   xmlns="http://www.w3.org/2000/svg"
   xmlns:sodipodi="http://sodipodi.sourceforge.net/DTD/sodipodi-0.dtd"
   xmlns:inkscape="http://www.inkscape.org/namespaces/inkscape"
   width="180mm"
   height="40mm"
   viewBox="0 0 180 40"
   version="1.1"
   id="svg8"
   inkscape:version="1.0 (4035a4fb49, 2020-05-01)"
   sodipodi:docname="marianalabs_logobranca.svg">
  <defs
     id="defs2" />
  <sodipodi:namedview
     id="base"
     pagecolor="#ffffff"
     bordercolor="#666666"
     borderopacity="1.0"
     inkscape:pageopacity="0.0"
     inkscape:pageshadow="2"
     inkscape:zoom="0.94361143"
     inkscape:cx="336.11129"
     inkscape:cy="154.02927"
     inkscape:document-units="mm"
     inkscape:current-layer="layer1"
     inkscape:document-rotation="0"
     showgrid="false"
     inkscape:snap-nodes="true"
     inkscape:snap-midpoints="false"
     inkscape:window-width="1366"
     inkscape:window-height="702"
     inkscape:window-x="-8"
     inkscape:window-y="-8"
     inkscape:window-maximized="1" />
  <metadata
     id="metadata5">
    <rdf:RDF>
      <cc:Work
         rdf:about="">
        <dc:format>image/svg+xml</dc:format>
        <dc:type
           rdf:resource="http://purl.org/dc/dcmitype/StillImage" />
        <dc:title></dc:title>
      </cc:Work>
    </rdf:RDF>
  </metadata>
  <g
     inkscape:label="Layer 1"
     inkscape:groupmode="layer"
     id="layer1">
    <text
       xml:space="preserve"
       style="font-size:22.5778px;line-height:1.25;font-family:'Josefin Sans';-inkscape-font-specification:'Josefin Sans';stroke-width:0.264583;fill:#ffffff;fill-opacity:1;"
       x="40.934605"
       y="28.957361"
       id="text835"><tspan
         sodipodi:role="line"
         id="tspan833"
         x="40.934605"
         y="28.957361"
         style="stroke-width:0.264583;fill:#ffffff;fill-opacity:1;"><tspan
           style="fill:#ffffff;fill-opacity:1;"
           id="tspan839">mariana</tspan><tspan
           style="font-style:normal;font-variant:normal;font-weight:300;font-stretch:normal;font-family:'Josefin Sans';-inkscape-font-specification:'Josefin Sans Light';fill:#ffffff;fill-opacity:1;"
           id="tspan837">Labs</tspan></tspan></text>
    <path
       style="fill:#ffffff;fill-opacity:1;stroke:#fffff1;stroke-width:0.265;stroke-linecap:butt;stroke-linejoin:miter;stroke-miterlimit:4;stroke-dasharray:none;stroke-opacity:1"
       d="m 25.022225,8.2935277 c -10e-7,1.31629 -1.067064,2.3833503 -2.383352,2.3833503 -1.316289,0 -2.383352,-1.0670603 -2.383353,-2.3833503 -4e-6,-1.31629 1.067061,-2.38336 2.383353,-2.38336 1.316292,0 2.383356,1.06707 2.383352,2.38336"
       id="path933" />
    <path
       style="fill:#ffffff;fill-opacity:1;stroke:#fffff1;stroke-width:0.265;stroke-linecap:butt;stroke-linejoin:miter;stroke-miterlimit:4;stroke-dasharray:none;stroke-opacity:1"
       d="m 32.552265,14.672508 c -2e-6,1.02286 -0.829194,1.85205 -1.852054,1.85205 -1.02286,0 -1.852056,-0.82919 -1.852054,-1.85205 0.06019,-1.04568 0.925602,-1.83585 1.852054,-1.85205 1.02286,0 1.852052,0.82919 1.852054,1.85205"
       id="path931" />
    <path
       style="fill:#ffffff;fill-opacity:1;stroke:#fffff1;stroke-width:0.265;stroke-linecap:butt;stroke-linejoin:miter;stroke-miterlimit:4;stroke-dasharray:none;stroke-opacity:1"
       d="m 37.389125,27.220158 c 2e-6,1.71975 -1.394134,3.11389 -3.113887,3.11389 -1.808566,-0.19473 -3.096259,-1.45004 -3.113887,-3.11389 2e-6,-1.71975 1.394137,-3.11388 3.113887,-3.11388 1.71975,0 3.113883,1.39413 3.113887,3.11388"
       id="path929" />
    <path
       style="fill:#ffffff;fill-opacity:1;stroke:#fffff1;stroke-width:0.265;stroke-linecap:butt;stroke-linejoin:miter;stroke-miterlimit:4;stroke-dasharray:none;stroke-opacity:1"
       d="m 13.430095,30.725088 c 3e-6,0.87615 -0.710256,1.58641 -1.586405,1.58641 -0.876149,0 -1.586407,-0.71026 -1.586404,-1.58641 3e-6,-0.87615 0.710259,-1.5864 1.586404,-1.5864 0.876145,0 1.586402,0.71025 1.586405,1.5864"
       id="path927" />
    <path
       style="fill:#ffffff;fill-opacity:1;stroke:#fffff1;stroke-width:0.265;stroke-linecap:butt;stroke-linejoin:miter;stroke-miterlimit:4;stroke-dasharray:none;stroke-opacity:1"
       d="m 17.521675,15.653888 c 4e-6,1.31629 -1.06706,2.38336 -2.383352,2.38336 -1.316292,0 -2.383356,-1.06707 -2.383352,-2.38336 1e-6,-1.31629 1.067064,-2.38335 2.383352,-2.38335 1.316288,0 2.383351,1.06706 2.383352,2.38335"
       id="path925" />
    <path
       style="fill:#ffffff;fill-opacity:1;stroke:#fffff1;stroke-width:0.265;stroke-linecap:butt;stroke-linejoin:miter;stroke-miterlimit:4;stroke-dasharray:none;stroke-opacity:1"
       d="m 14.422593,23.224538 c -1e-6,1.463 -1.185999,2.649 -2.649002,2.649 -1.463002,0 -2.6490001,-1.186 -2.6490011,-2.649 10e-7,-1.463 1.1859991,-2.649 2.6490011,-2.649 1.463003,0 2.649001,1.186 2.649002,2.649"
       id="path923" />
    <path
       style="fill:#ffffff;fill-opacity:1;stroke:#fffff1;stroke-width:0.265;stroke-linecap:butt;stroke-linejoin:miter;stroke-miterlimit:4;stroke-dasharray:none;stroke-opacity:1"
       d="m 25.723211,32.687858 c -10e-7,1.31629 -1.067064,2.38335 -2.383352,2.38335 -1.316288,0 -2.383351,-1.06706 -2.383352,-2.38335 1e-6,-1.31629 1.067064,-2.38335 2.383352,-2.38335 1.316288,0 2.383351,1.06706 2.383352,2.38335"
       id="path921" />
    <path
       style="fill:#ffffff;fill-opacity:1;stroke:#fffff1;stroke-width:0.265;stroke-linecap:butt;stroke-linejoin:miter;stroke-miterlimit:4;stroke-dasharray:none;stroke-opacity:1"
       d="m 11.773591,20.575538 3.364732,-2.53829"
       id="path919" />
    <path
       style="fill:#ffffff;fill-opacity:1;stroke:#fffff1;stroke-width:0.265;stroke-linecap:butt;stroke-linejoin:miter;stroke-miterlimit:4;stroke-dasharray:none;stroke-opacity:1"
       d="m 11.843691,29.138688 -0.0701,-3.26515"
       id="path917" />
    <path
       style="fill:#ffffff;fill-opacity:1;stroke:#fffff1;stroke-width:0.265;stroke-linecap:butt;stroke-linejoin:miter;stroke-miterlimit:4;stroke-dasharray:none;stroke-opacity:1"
       d="m 20.956508,32.687858 -7.526412,-1.96277"
       id="path915" />
    <path
       style="fill:#ffffff;fill-opacity:1;stroke:#fffff1;stroke-width:0.265;stroke-linecap:butt;stroke-linejoin:miter;stroke-miterlimit:4;stroke-dasharray:none;stroke-opacity:1"
       d="m 31.59436,28.752488 -5.871148,3.93537"
       id="path913" />
    <path
       style="fill:#ffffff;fill-opacity:1;stroke:#fffff1;stroke-width:0.265;stroke-linecap:butt;stroke-linejoin:miter;stroke-miterlimit:4;stroke-dasharray:none;stroke-opacity:1"
       d="m 31.55488,16.345028 2.011297,7.88906"
       id="path911" />
    <path
       style="fill:#ffffff;fill-opacity:1;stroke:#fffff1;stroke-width:0.265;stroke-linecap:butt;stroke-linejoin:miter;stroke-miterlimit:4;stroke-dasharray:none;stroke-opacity:1"
       d="m 24.411265,9.7309877 4.799048,3.8449103"
       id="path857" />
    <path
       id="path935"
       d="m 26.815205,8.2935377 c -2e-6,2.3065203 -1.869809,4.1763203 -4.176331,4.1763203 -2.306525,0 -4.176332,-1.8698 -4.176334,-4.1763203 -7e-6,-2.30653 1.869804,-4.17635 4.176334,-4.17635 2.306529,0 4.176338,1.86982 4.176331,4.17635"
       style="fill:#ffffff;fill-opacity:1;stroke:#fffff1;stroke-width:0.464358;stroke-linecap:butt;stroke-linejoin:miter;stroke-miterlimit:4;stroke-dasharray:none;stroke-opacity:1" />
    <path
       style="fill:#ffffff;fill-opacity:1;stroke:#fffff1;stroke-width:0.353603;stroke-linecap:butt;stroke-linejoin:miter;stroke-miterlimit:4;stroke-dasharray:none;stroke-opacity:1"
       d="m 33.880441,14.672528 c -2e-6,1.75638 -1.423839,3.18021 -3.180229,3.18021 -1.756393,0 -3.18023,-1.42383 -3.180232,-3.18021 -5e-6,-1.7564 1.423835,-3.18025 3.180232,-3.18025 1.756396,0 3.180234,1.42385 3.180229,3.18025"
       id="path937" />
    <path
       id="path943"
       d="m 38.45157,27.220188 c -2e-6,2.30652 -1.869809,4.17631 -4.176331,4.17631 -2.306525,0 -4.176332,-1.86979 -4.176334,-4.17631 -7e-6,-2.30653 1.869804,-4.17635 4.176334,-4.17635 2.306529,0 4.176338,1.86982 4.176331,4.17635"
       style="fill:#ffffff;fill-opacity:1;stroke:#fffff1;stroke-width:0.464358;stroke-linecap:butt;stroke-linejoin:miter;stroke-miterlimit:4;stroke-dasharray:none;stroke-opacity:1" />
    <path
       style="fill:#ffffff;fill-opacity:1;stroke:#fffff1;stroke-width:0.360987;stroke-linecap:butt;stroke-linejoin:miter;stroke-miterlimit:4;stroke-dasharray:none;stroke-opacity:1"
       d="m 26.586496,32.687878 c -2e-6,1.79306 -1.45357,3.24662 -3.246636,3.24662 -1.793069,0 -3.246637,-1.45356 -3.246639,-3.24662 -5e-6,-1.79308 1.453566,-3.24666 3.246639,-3.24666 1.793071,0 3.246641,1.45358 3.246636,3.24666"
       id="path945" />
    <path
       id="path947"
       d="m 14.559074,30.725108 c -1e-6,1.49966 -1.215719,2.71537 -2.715383,2.71537 -1.499665,0 -2.7153831,-1.21571 -2.7153841,-2.71537 -5e-6,-1.49967 1.2157161,-2.7154 2.7153841,-2.7154 1.499668,0 2.715388,1.21573 2.715383,2.7154"
       style="fill:#ffffff;fill-opacity:1;stroke:#fffff1;stroke-width:0.301918;stroke-linecap:butt;stroke-linejoin:miter;stroke-miterlimit:4;stroke-dasharray:none;stroke-opacity:1" />
    <path
       style="fill:#ffffff;fill-opacity:1;stroke:#fffff1;stroke-width:0.397905;stroke-linecap:butt;stroke-linejoin:miter;stroke-miterlimit:4;stroke-dasharray:none;stroke-opacity:1"
       d="m 15.352263,23.224558 c -2e-6,1.97644 -1.602227,3.57865 -3.57867,3.57865 -1.9764461,0 -3.5786711,-1.60221 -3.5786731,-3.57865 -6e-6,-1.97645 1.602223,-3.57869 3.5786731,-3.57869 1.976449,0 3.578676,1.60224 3.57867,3.57869"
       id="path949" />
    <path
       id="path951"
       d="m 18.650588,15.653918 c -10e-7,1.93976 -1.572495,3.51223 -3.512263,3.51223 -1.939771,0 -3.512265,-1.57247 -3.512266,-3.51223 -6e-6,-1.93978 1.572491,-3.51228 3.512266,-3.51228 1.939774,0 3.512269,1.5725 3.512263,3.51228"
       style="fill:#ffffff;fill-opacity:1;stroke:#fffff1;stroke-width:0.390522;stroke-linecap:butt;stroke-linejoin:miter;stroke-miterlimit:4;stroke-dasharray:none;stroke-opacity:1" />
  </g>
</svg>
